<svg width="46" height="46" viewBox="0 0 46 46" fill="none" xmlns="http://www.w3.org/2000/svg">
<rect x="46" y="46" width="46" height="46" rx="23" transform="rotate(180 46 46)" fill="black" fill-opacity="0.5"/>
<g clip-path="url(#clip0_1_2044)">
<path d="M17.9998 23.7024L26.01 31.7124C26.1952 31.8979 26.4426 32 26.7063 32C26.97 32 27.2173 31.8979 27.4026 31.7124L27.9925 31.1227C28.3763 30.7384 28.3763 30.1138 27.9925 29.7301L21.2661 23.0037L27.9999 16.2699C28.1852 16.0845 28.2875 15.8373 28.2875 15.5737C28.2875 15.3099 28.1852 15.0627 27.9999 14.8772L27.41 14.2876C27.2246 14.1021 26.9774 14 26.7137 14C26.45 14 26.2027 14.1021 26.0174 14.2876L17.9998 22.305C17.814 22.491 17.712 22.7393 17.7126 23.0033C17.712 23.2683 17.814 23.5165 17.9998 23.7024Z" fill="#BFBFBF"/>
</g>
<defs>
<clipPath id="clip0_1_2044">
<rect width="18" height="18" fill="white" transform="translate(32 32) rotate(180)"/>
</clipPath>
</defs>
</svg>
