<svg width="46" height="46" viewBox="0 0 46 46" fill="none" xmlns="http://www.w3.org/2000/svg">
<rect width="46" height="46" rx="23" fill="black" fill-opacity="0.5"/>
<path d="M28.0002 22.2976L19.99 14.2876C19.8048 14.1021 19.5574 14 19.2937 14C19.03 14 18.7827 14.1021 18.5974 14.2876L18.0075 14.8773C17.6237 15.2616 17.6237 15.8862 18.0075 16.2699L24.7339 22.9963L18.0001 29.7301C17.8148 29.9155 17.7125 30.1627 17.7125 30.4263C17.7125 30.6901 17.8148 30.9373 18.0001 31.1228L18.59 31.7124C18.7754 31.8979 19.0226 32 19.2863 32C19.55 32 19.7973 31.8979 19.9826 31.7124L28.0002 23.695C28.186 23.509 28.288 23.2607 28.2874 22.9967C28.288 22.7317 28.186 22.4835 28.0002 22.2976Z" fill="#BFBFBF"/>
</svg>
